<svg width="17" height="12" fill="none" xmlns="http://www.w3.org/2000/svg"><path d="M15.506 0H1.494A1.5 1.5 0 000 1.5v9c0 .83.674 1.5 1.494 1.5h14.012c.819 0 1.494-.668 1.494-1.5v-9c0-.823-.666-1.5-1.494-1.5zm-.21 1l-5.74 5.732c-.282.284-.657.44-1.056.44-.4 0-.774-.156-1.057-.44L1.703 1h13.594zm-14.3 9.296V1.704L5.3 6.003.996 10.296zm.708.704l4.303-4.292.732.731c.47.473 1.096.733 1.761.733.665 0 1.29-.26 1.76-.732l.733-.732L15.296 11H1.704zm14.3-.704l-4.305-4.293 4.305-4.299v8.592z" fill="url(#paint0_linear)"/><defs><linearGradient id="paint0_linear" x1="8.5" y1="0" x2="8.5" y2="12" gradientUnits="userSpaceOnUse"><stop stop-color="#552EC2"/><stop offset="1" stop-color="#5D2E8C"/></linearGradient></defs></svg>