<svg width="15" height="14" fill="none" xmlns="http://www.w3.org/2000/svg"><path d="M7.5 9.635a.78.78 0 00-.771.771c0 .42.351.771.77.771.405 0 .772-.351.753-.752a.753.753 0 00-.752-.79z" fill="url(#paint0_linear)"/><path d="M14.635 12.368a2.632 2.632 0 00.006-2.664L9.812 1.34A2.623 2.623 0 007.502 0c-.967 0-1.83.503-2.309 1.338L.358 9.71a2.653 2.653 0 00.01 2.68 2.639 2.639 0 002.303 1.322h9.645c.965 0 1.832-.502 2.319-1.344zm-1.048-.604a1.457 1.457 0 01-1.274.736H2.668c-.524 0-.996-.268-1.258-.721a1.459 1.459 0 01-.003-1.47l4.835-8.37a1.43 1.43 0 011.26-.73c.528 0 1 .274 1.262.734l4.832 8.368c.259.45.256.993-.01 1.453z" fill="url(#paint1_linear)"/><path d="M7.309 4.224c-.367.105-.596.438-.596.842.019.243.034.49.053.734l.157 2.766a.565.565 0 00.577.542.577.577 0 00.576-.56c0-.192 0-.368.019-.562L8.2 6.2c.018-.386.052-.771.07-1.157a.952.952 0 00-.07-.385.773.773 0 00-.891-.435z" fill="url(#paint2_linear)"/><defs><linearGradient id="paint0_linear" x1="7.491" y1="9.635" x2="7.491" y2="11.177" gradientUnits="userSpaceOnUse"><stop stop-color="#552EC2"/><stop offset="1" stop-color="#5D2E8C"/></linearGradient><linearGradient id="paint1_linear" x1="7.5" y1="0" x2="7.5" y2="13.712" gradientUnits="userSpaceOnUse"><stop stop-color="#552EC2"/><stop offset="1" stop-color="#5D2E8C"/></linearGradient><linearGradient id="paint2_linear" x1="7.492" y1="4.202" x2="7.492" y2="9.108" gradientUnits="userSpaceOnUse"><stop stop-color="#552EC2"/><stop offset="1" stop-color="#5D2E8C"/></linearGradient></defs></svg>