<svg width="27" height="27" fill="none" xmlns="http://www.w3.org/2000/svg"><path d="M21.375 13.5c-.622 0-1.125.503-1.125 1.124v9c0 .62-.504 1.125-1.125 1.125H3.375a1.126 1.126 0 01-1.125-1.125V7.874c0-.62.504-1.125 1.125-1.125h9a1.125 1.125 0 100-2.25h-9A3.38 3.38 0 000 7.874v15.75A3.38 3.38 0 003.375 27h15.75a3.38 3.38 0 003.375-3.375v-9c0-.622-.503-1.125-1.125-1.125z" fill="url(#paint0_linear)"/><path d="M10.548 12.474a.569.569 0 00-.154.287L9.6 16.739a.564.564 0 00.662.662l3.977-.796a.559.559 0 00.288-.154l8.901-8.901-3.976-3.977-8.903 8.901z" fill="url(#paint1_linear)"/><path d="M26.176.823a2.814 2.814 0 00-3.976 0L20.643 2.38l3.976 3.977 1.557-1.558A2.79 2.79 0 0027 2.812c0-.752-.293-1.458-.824-1.99z" fill="url(#paint2_linear)"/><defs><linearGradient id="paint0_linear" x1="11.25" y1="4.499" x2="11.25" y2="26.999" gradientUnits="userSpaceOnUse"><stop stop-color="#552EC2"/><stop offset="1" stop-color="#5D2E8C"/></linearGradient><linearGradient id="paint1_linear" x1="16.508" y1="3.573" x2="16.508" y2="17.412" gradientUnits="userSpaceOnUse"><stop stop-color="#552EC2"/><stop offset="1" stop-color="#5D2E8C"/></linearGradient><linearGradient id="paint2_linear" x1="23.821" y1="0" x2="23.821" y2="6.357" gradientUnits="userSpaceOnUse"><stop stop-color="#552EC2"/><stop offset="1" stop-color="#5D2E8C"/></linearGradient></defs></svg>