<svg width="30" height="30" fill="none" xmlns="http://www.w3.org/2000/svg"><path d="M22.772 19.103a11.83 11.83 0 00-4.513-2.83 6.863 6.863 0 002.981-5.658 6.873 6.873 0 00-6.865-6.865 6.873 6.873 0 00-6.865 6.865 6.863 6.863 0 002.98 5.658 11.845 11.845 0 00-4.512 2.83A11.797 11.797 0 002.5 27.5h1.855c0-5.525 4.495-10.02 10.02-10.02 5.525 0 10.02 4.495 10.02 10.02h1.855c0-3.172-1.235-6.154-3.478-8.397zm-8.397-3.478a5.015 5.015 0 01-5.01-5.01 5.015 5.015 0 015.01-5.01 5.015 5.015 0 015.01 5.01 5.015 5.015 0 01-5.01 5.01z" fill="url(#paint0_linear)"/><defs><linearGradient id="paint0_linear" x1="14.375" y1="3.75" x2="14.375" y2="27.5" gradientUnits="userSpaceOnUse"><stop stop-color="#552EC2"/><stop offset="1" stop-color="#5D2E8C"/></linearGradient></defs></svg>