<svg width="15" height="14" fill="none" xmlns="http://www.w3.org/2000/svg"><path d="M7 12.833H1.75a.584.584 0 01-.583-.583V1.75c0-.322.261-.583.583-.583H7A.583.583 0 107 0H1.75C.785 0 0 .785 0 1.75v10.5C0 13.215.785 14 1.75 14H7a.583.583 0 100-1.167z" fill="url(#paint0_linear)"/><path d="M13.873 6.585l-3.547-3.5a.583.583 0 10-.819.83l2.535 2.502H5.25a.583.583 0 100 1.167h6.792l-2.535 2.5a.583.583 0 10.82.832l3.546-3.5a.585.585 0 000-.831z" fill="url(#paint1_linear)"/><defs><linearGradient id="paint0_linear" x1="3.792" y1="0" x2="3.792" y2="14" gradientUnits="userSpaceOnUse"><stop stop-color="#552EC2"/><stop offset="1" stop-color="#5D2E8C"/></linearGradient><linearGradient id="paint1_linear" x1="9.357" y1="2.917" x2="9.357" y2="11.084" gradientUnits="userSpaceOnUse"><stop stop-color="#552EC2"/><stop offset="1" stop-color="#5D2E8C"/></linearGradient></defs></svg>