<svg width="79" height="62" fill="none" xmlns="http://www.w3.org/2000/svg"><path fill-rule="evenodd" clip-rule="evenodd" d="M63.72 1.174L77.686 14.43c1.71 1.625 1.75 4.377.125 6.086L39.667 60.62c-1.626 1.709-4.378 1.75-6.087.125L19.615 47.489c-1.71-1.626-1.751-4.377-.125-6.086L57.634 1.299c1.668-1.668 4.377-1.751 6.087-.125z" fill="#fff"/><path fill-rule="evenodd" clip-rule="evenodd" d="M12.194 12.096L1.19 23.769a4.33 4.33 0 00.125 6.086l29.64 28.264c1.71 1.626 4.46 1.585 6.087-.125l11.005-11.672a4.33 4.33 0 00-.125-6.087l-29.64-28.264c-1.71-1.668-4.46-1.584-6.086.125z" fill="#fff"/><path fill-rule="evenodd" clip-rule="evenodd" d="M19.323 43.736c-.5-.5-.5-1.334 0-1.834l2.251-2.251c.25-.25.584-.375.917-.375.334 0 .668.125.918.375.5.5.5 1.334 0 1.834l-2.252 2.252c-.5.5-1.334.5-1.834 0z" fill="url(#paint0_linear)"/><path fill-rule="evenodd" clip-rule="evenodd" d="M22.074 46.447c-.5-.5-.5-1.334 0-1.834l2.252-2.251c.25-.25.583-.376.917-.376.333 0 .667.126.917.376.5.5.5 1.334 0 1.834l-2.251 2.251c-.5.542-1.334.542-1.835 0z" fill="url(#paint1_linear)"/><path fill-rule="evenodd" clip-rule="evenodd" d="M26.66 49.198c-.25.25-.583.375-.917.375-.333 0-.667-.125-.917-.375-.5-.5-.5-1.334 0-1.835l2.251-2.25c.25-.25.584-.376.917-.376.334 0 .667.125.917.375s.376.584.376.917c0 .334-.125.667-.376.917l-2.25 2.252z" fill="url(#paint2_linear)"/><path fill-rule="evenodd" clip-rule="evenodd" d="M30.537 50.824l-1.125 1.125c-.5.5-1.334.5-1.835 0-.5-.5-.5-1.334 0-1.834l2.251-2.251c.25-.25.584-.375.918-.375.333 0 .667.125.917.375.5.5.5 1.334 0 1.834l-1.126 1.126z" fill="url(#paint3_linear)"/><path fill-rule="evenodd" clip-rule="evenodd" d="M46.087 47.156c-.5.5-1.334.5-1.835 0l-.792-.792-2.834-2.835a.654.654 0 00-.917 0 .654.654 0 000 .917l2.834 2.835c.5.5.5 1.334 0 1.834s-1.334.5-1.834 0l-2.793-2.793a.654.654 0 00-.917 0 .654.654 0 000 .917l2.293 2.293c.5.5.5 1.334 0 1.834s-1.334.5-1.835 0l-.542-.542-1.75-1.75a.654.654 0 00-.918 0 .654.654 0 000 .916l1.751 1.751c.5.5.5 1.334 0 1.834s-1.334.5-1.834 0l-2.251-2.25.667-.668c1-1 1-2.626 0-3.626a2.63 2.63 0 00-2.001-.75v-.168c0-.708-.25-1.334-.75-1.834a2.63 2.63 0 00-2.002-.75 2.63 2.63 0 00-.75-2.001 2.63 2.63 0 00-2-.75 2.63 2.63 0 00-.751-2.002c-1-1-2.627-1-3.627 0l-.667.667-1.293-1.292 6.796-6.879 1.375 1.376a.627.627 0 00.459.167h1.918l-2.46 2.46a.654.654 0 000 .917 4.68 4.68 0 006.628 0l1.751-1.751 7.129 7.128c.041.042.041.084.125.125l3.627 3.627c.25.25.375.584.375.918 0 .375-.125.667-.375.917z" fill="url(#paint4_linear)"/><path fill-rule="evenodd" clip-rule="evenodd" d="M45.67 43.07L35.665 33.065a.627.627 0 00-.459-.167c-.167 0-.333.083-.459.167l-2.209 2.21c-.625.625-1.5 1-2.418 1a3.362 3.362 0 01-1.918-.584l5.628-5.628h5.086l2.543 2.543c.25.25.667.25.917 0l1.418-1.334 6.837 6.837-4.961 4.96z" fill="url(#paint5_linear)"/><path fill-rule="evenodd" clip-rule="evenodd" d="M63.93 10.387l5.043 4.96a2.906 2.906 0 01.042 4.128L51.673 36.9l-9.213-9.088 17.3-17.384c1.168-1.125 3.002-1.167 4.17-.041z" fill="url(#paint6_linear)"/><path fill-rule="evenodd" clip-rule="evenodd" d="M13.57 19.141l-5.002 5.003c-1.126 1.125-1.126 3.001 0 4.127l9.004 9.046 9.13-9.13-9.005-9.046c-1.125-1.125-3.001-1.125-4.127 0z" fill="url(#paint7_linear)"/><defs><linearGradient id="paint0_linear" x1="21.366" y1="39.276" x2="21.366" y2="44.112" gradientUnits="userSpaceOnUse"><stop stop-color="#552EC2"/><stop offset="1" stop-color="#5D2E8C"/></linearGradient><linearGradient id="paint1_linear" x1="24.117" y1="41.986" x2="24.117" y2="46.854" gradientUnits="userSpaceOnUse"><stop stop-color="#552EC2"/><stop offset="1" stop-color="#5D2E8C"/></linearGradient><linearGradient id="paint2_linear" x1="26.869" y1="44.737" x2="26.869" y2="49.573" gradientUnits="userSpaceOnUse"><stop stop-color="#552EC2"/><stop offset="1" stop-color="#5D2E8C"/></linearGradient><linearGradient id="paint3_linear" x1="29.62" y1="47.489" x2="29.62" y2="52.325" gradientUnits="userSpaceOnUse"><stop stop-color="#552EC2"/><stop offset="1" stop-color="#5D2E8C"/></linearGradient><linearGradient id="paint4_linear" x1="32.601" y1="31.273" x2="32.601" y2="53.951" gradientUnits="userSpaceOnUse"><stop stop-color="#552EC2"/><stop offset="1" stop-color="#5D2E8C"/></linearGradient><linearGradient id="paint5_linear" x1="39.417" y1="30.063" x2="39.417" y2="43.07" gradientUnits="userSpaceOnUse"><stop stop-color="#552EC2"/><stop offset="1" stop-color="#5D2E8C"/></linearGradient><linearGradient id="paint6_linear" x1="56.157" y1="9.563" x2="56.157" y2="36.9" gradientUnits="userSpaceOnUse"><stop stop-color="#552EC2"/><stop offset="1" stop-color="#5D2E8C"/></linearGradient><linearGradient id="paint7_linear" x1="17.213" y1="18.297" x2="17.213" y2="37.317" gradientUnits="userSpaceOnUse"><stop stop-color="#552EC2"/><stop offset="1" stop-color="#5D2E8C"/></linearGradient></defs></svg>