<svg width="12" height="14" fill="none" xmlns="http://www.w3.org/2000/svg"><path d="M10.133 7.01V5.733A4.14 4.14 0 007.2 1.778V1.2a1.201 1.201 0 00-2.4 0v.578a4.14 4.14 0 00-2.933 3.955V7.01A6.28 6.28 0 01.11 11.376a.4.4 0 00.289.677h3.64c.186.912.994 1.6 1.96 1.6s1.774-.688 1.96-1.6h3.64a.4.4 0 00.289-.677 6.28 6.28 0 01-1.756-4.366zM5.6 1.2a.4.4 0 01.8 0v.42a4.168 4.168 0 00-.8 0V1.2zM6 12.853c-.521 0-.966-.334-1.131-.8H7.13c-.165.466-.61.8-1.131.8zm-4.738-1.6A7.072 7.072 0 002.667 7.01V5.733A3.337 3.337 0 016 2.4a3.337 3.337 0 013.333 3.333V7.01c0 1.544.494 3.022 1.405 4.243H1.262z" fill="url(#paint0_linear)"/><path d="M11.2 5.733a.4.4 0 10.8 0 5.96 5.96 0 00-1.757-4.243.4.4 0 00-.566.566A5.166 5.166 0 0111.2 5.733z" fill="url(#paint1_linear)"/><path d="M.4 6.133a.4.4 0 00.4-.4c0-1.39.54-2.695 1.523-3.677a.4.4 0 10-.566-.566A5.96 5.96 0 000 5.733c0 .22.18.4.4.4z" fill="url(#paint2_linear)"/><defs><linearGradient id="paint0_linear" x1="6" y1="0" x2="6" y2="13.653" gradientUnits="userSpaceOnUse"><stop stop-color="#552EC2"/><stop offset="1" stop-color="#5D2E8C"/></linearGradient><linearGradient id="paint1_linear" x1="10.78" y1="1.373" x2="10.78" y2="6.133" gradientUnits="userSpaceOnUse"><stop stop-color="#552EC2"/><stop offset="1" stop-color="#5D2E8C"/></linearGradient><linearGradient id="paint2_linear" x1="1.22" y1="1.373" x2="1.22" y2="6.133" gradientUnits="userSpaceOnUse"><stop stop-color="#552EC2"/><stop offset="1" stop-color="#5D2E8C"/></linearGradient></defs></svg>