<svg width="49" height="34" fill="none" xmlns="http://www.w3.org/2000/svg"><path d="M36.614 21.388a6.118 6.118 0 00-6.111 6.11 6.117 6.117 0 006.11 6.111 6.117 6.117 0 006.111-6.11c0-3.37-2.74-6.111-6.11-6.111zm0 9.166a3.059 3.059 0 01-3.056-3.055 3.059 3.059 0 013.056-3.056 3.059 3.059 0 013.055 3.055 3.058 3.058 0 01-3.055 3.056z" fill="url(#paint0_linear)"/><path d="M15.735 21.388a6.118 6.118 0 00-6.11 6.11c0 3.37 2.74 6.111 6.11 6.111s6.111-2.741 6.111-6.11a6.117 6.117 0 00-6.11-6.111zm0 9.166a3.059 3.059 0 01-3.055-3.055 3.059 3.059 0 013.055-3.056 3.059 3.059 0 013.056 3.055 3.058 3.058 0 01-3.056 3.056z" fill="url(#paint1_linear)"/><path d="M40.729 3.897a1.529 1.529 0 00-1.365-.841h-8.046V6.11h7.104l4.16 8.274 2.73-1.373-4.583-9.115z" fill="url(#paint2_linear)"/><path d="M32.03 26.021H20.472v3.056h11.56V26.02z" fill="url(#paint3_linear)"/><path d="M11.152 26.021H5.856a1.528 1.528 0 100 3.056h5.296a1.528 1.528 0 100-3.056z" fill="url(#paint4_linear)"/><path d="M48.158 16.682l-3.005-3.87a1.526 1.526 0 00-1.206-.59H32.845V1.527A1.525 1.525 0 0031.319 0H5.856a1.528 1.528 0 100 3.055H29.79V13.75c0 .844.684 1.528 1.528 1.528h11.88l2.225 2.866v7.878h-4.226a1.528 1.528 0 100 3.056h5.754c.844 0 1.528-.684 1.528-1.528v-9.93c0-.339-.113-.669-.32-.937z" fill="url(#paint5_linear)"/><path d="M11.05 18.281H4.023a1.528 1.528 0 100 3.056h7.027a1.528 1.528 0 100-3.056z" fill="url(#paint6_linear)"/><path d="M14.564 12.273H1.528a1.528 1.528 0 100 3.055h13.036a1.528 1.528 0 100-3.055z" fill="url(#paint7_linear)"/><path d="M17.06 6.264H4.022a1.528 1.528 0 100 3.055h13.036a1.528 1.528 0 100-3.055z" fill="url(#paint8_linear)"/><defs><linearGradient id="paint0_linear" x1="36.614" y1="21.388" x2="36.614" y2="33.609" gradientUnits="userSpaceOnUse"><stop stop-color="#552EC2"/><stop offset="1" stop-color="#5D2E8C"/></linearGradient><linearGradient id="paint1_linear" x1="15.735" y1="21.388" x2="15.735" y2="33.609" gradientUnits="userSpaceOnUse"><stop stop-color="#552EC2"/><stop offset="1" stop-color="#5D2E8C"/></linearGradient><linearGradient id="paint2_linear" x1="38.315" y1="3.056" x2="38.315" y2="14.385" gradientUnits="userSpaceOnUse"><stop stop-color="#552EC2"/><stop offset="1" stop-color="#5D2E8C"/></linearGradient><linearGradient id="paint3_linear" x1="26.251" y1="26.021" x2="26.251" y2="29.077" gradientUnits="userSpaceOnUse"><stop stop-color="#552EC2"/><stop offset="1" stop-color="#5D2E8C"/></linearGradient><linearGradient id="paint4_linear" x1="8.504" y1="26.021" x2="8.504" y2="29.077" gradientUnits="userSpaceOnUse"><stop stop-color="#552EC2"/><stop offset="1" stop-color="#5D2E8C"/></linearGradient><linearGradient id="paint5_linear" x1="26.404" y1="0" x2="26.404" y2="29.077" gradientUnits="userSpaceOnUse"><stop stop-color="#552EC2"/><stop offset="1" stop-color="#5D2E8C"/></linearGradient><linearGradient id="paint6_linear" x1="7.536" y1="18.281" x2="7.536" y2="21.337" gradientUnits="userSpaceOnUse"><stop stop-color="#552EC2"/><stop offset="1" stop-color="#5D2E8C"/></linearGradient><linearGradient id="paint7_linear" x1="8.046" y1="12.273" x2="8.046" y2="15.328" gradientUnits="userSpaceOnUse"><stop stop-color="#552EC2"/><stop offset="1" stop-color="#5D2E8C"/></linearGradient><linearGradient id="paint8_linear" x1="10.541" y1="6.264" x2="10.541" y2="9.319" gradientUnits="userSpaceOnUse"><stop stop-color="#552EC2"/><stop offset="1" stop-color="#5D2E8C"/></linearGradient></defs></svg>