<svg width="10" height="13" fill="none" xmlns="http://www.w3.org/2000/svg"><path d="M9.652 3.114L6.648.11A.376.376 0 006.383 0H1.126C.506 0 0 .505 0 1.126V11.69c0 .621.505 1.126 1.126 1.126h7.51c.62 0 1.126-.505 1.126-1.126V3.38a.379.379 0 00-.11-.265zM6.758 1.282L8.48 3.004H7.134a.376.376 0 01-.376-.376V1.282zm1.877 10.783H1.126a.376.376 0 01-.375-.376V1.126c0-.207.168-.375.375-.375h4.881v1.877c0 .621.505 1.127 1.127 1.127H9.01v7.934a.376.376 0 01-.376.376z" fill="url(#paint0_linear)"/><path d="M7.134 5.306H2.628a.375.375 0 000 .75h4.506a.375.375 0 000-.75z" fill="url(#paint1_linear)"/><path d="M7.134 6.808H2.628a.375.375 0 000 .75h4.506a.375.375 0 000-.75z" fill="url(#paint2_linear)"/><path d="M7.134 8.31H2.628a.375.375 0 000 .75h4.506a.375.375 0 000-.75z" fill="url(#paint3_linear)"/><path d="M5.632 9.813H2.628a.375.375 0 000 .75h3.004a.375.375 0 100-.75z" fill="url(#paint4_linear)"/><defs><linearGradient id="paint0_linear" x1="4.881" y1="0" x2="4.881" y2="12.815" gradientUnits="userSpaceOnUse"><stop stop-color="#552EC2"/><stop offset="1" stop-color="#5D2E8C"/></linearGradient><linearGradient id="paint1_linear" x1="4.881" y1="5.306" x2="4.881" y2="6.057" gradientUnits="userSpaceOnUse"><stop stop-color="#552EC2"/><stop offset="1" stop-color="#5D2E8C"/></linearGradient><linearGradient id="paint2_linear" x1="4.881" y1="6.808" x2="4.881" y2="7.559" gradientUnits="userSpaceOnUse"><stop stop-color="#552EC2"/><stop offset="1" stop-color="#5D2E8C"/></linearGradient><linearGradient id="paint3_linear" x1="4.881" y1="8.31" x2="4.881" y2="9.06" gradientUnits="userSpaceOnUse"><stop stop-color="#552EC2"/><stop offset="1" stop-color="#5D2E8C"/></linearGradient><linearGradient id="paint4_linear" x1="4.13" y1="9.813" x2="4.13" y2="10.563" gradientUnits="userSpaceOnUse"><stop stop-color="#552EC2"/><stop offset="1" stop-color="#5D2E8C"/></linearGradient></defs></svg>