<svg width="15" height="15" fill="none" xmlns="http://www.w3.org/2000/svg"><path d="M14.121 8.562V1.348a.44.44 0 00-.44-.44h-2.226V.44a.44.44 0 10-.879 0v.47H8.818V.44a.44.44 0 10-.879 0v.47H6.182V.44a.44.44 0 10-.88 0v.47H3.546V.44a.44.44 0 10-.879 0v.47H.439A.44.44 0 000 1.347v11.455c0 .242.197.44.44.44h7.318A3.955 3.955 0 0011.045 15 3.96 3.96 0 0015 11.045c0-.94-.33-1.804-.879-2.483zM2.666 1.787v.44a.44.44 0 10.879 0v-.44h1.758v.44a.44.44 0 10.879 0v-.44h1.757v.44a.44.44 0 10.88 0v-.44h1.757v.44a.44.44 0 10.88 0v-.44h1.786v1.758H.88V1.787h1.787zM.879 12.363v-7.94h12.363v3.335a3.955 3.955 0 00-5.515 1.137.437.437 0 00-.198-.047H6.65a.44.44 0 100 .879h.666c-.1.28-.168.574-.202.878H6.65a.44.44 0 100 .88h.464c.034.304.103.598.202.878H.88zm10.166 1.758a3.08 3.08 0 01-3.076-3.076 3.08 3.08 0 013.076-3.076 3.08 3.08 0 013.076 3.076 3.08 3.08 0 01-3.076 3.076z" fill="url(#paint0_linear)"/><path d="M12.803 10.605h-1.319V9.287a.44.44 0 10-.879 0v1.758c0 .243.197.44.44.44h1.758a.44.44 0 100-.88z" fill="url(#paint1_linear)"/><path d="M3.984 5.332h-.879a.44.44 0 100 .879h.88a.44.44 0 100-.879z" fill="url(#paint2_linear)"/><path d="M3.984 7.09h-.879a.44.44 0 100 .879h.88a.44.44 0 100-.88z" fill="url(#paint3_linear)"/><path d="M3.984 8.848h-.879a.44.44 0 100 .879h.88a.44.44 0 100-.88z" fill="url(#paint4_linear)"/><path d="M6.65 6.21h.88a.44.44 0 100-.878h-.88a.44.44 0 100 .879z" fill="url(#paint5_linear)"/><path d="M6.65 7.969h.88a.44.44 0 100-.88h-.88a.44.44 0 100 .88z" fill="url(#paint6_linear)"/><path d="M3.984 10.605h-.879a.44.44 0 100 .88h.88a.44.44 0 100-.88z" fill="url(#paint7_linear)"/><path d="M10.166 6.21h.879a.44.44 0 100-.878h-.879a.44.44 0 100 .879z" fill="url(#paint8_linear)"/><defs><linearGradient id="paint0_linear" x1="7.5" y1="0" x2="7.5" y2="15" gradientUnits="userSpaceOnUse"><stop stop-color="#552EC2"/><stop offset="1" stop-color="#5D2E8C"/></linearGradient><linearGradient id="paint1_linear" x1="11.924" y1="8.848" x2="11.924" y2="11.484" gradientUnits="userSpaceOnUse"><stop stop-color="#552EC2"/><stop offset="1" stop-color="#5D2E8C"/></linearGradient><linearGradient id="paint2_linear" x1="3.545" y1="5.332" x2="3.545" y2="6.211" gradientUnits="userSpaceOnUse"><stop stop-color="#552EC2"/><stop offset="1" stop-color="#5D2E8C"/></linearGradient><linearGradient id="paint3_linear" x1="3.545" y1="7.09" x2="3.545" y2="7.969" gradientUnits="userSpaceOnUse"><stop stop-color="#552EC2"/><stop offset="1" stop-color="#5D2E8C"/></linearGradient><linearGradient id="paint4_linear" x1="3.545" y1="8.848" x2="3.545" y2="9.727" gradientUnits="userSpaceOnUse"><stop stop-color="#552EC2"/><stop offset="1" stop-color="#5D2E8C"/></linearGradient><linearGradient id="paint5_linear" x1="7.09" y1="5.332" x2="7.09" y2="6.211" gradientUnits="userSpaceOnUse"><stop stop-color="#552EC2"/><stop offset="1" stop-color="#5D2E8C"/></linearGradient><linearGradient id="paint6_linear" x1="7.09" y1="7.09" x2="7.09" y2="7.969" gradientUnits="userSpaceOnUse"><stop stop-color="#552EC2"/><stop offset="1" stop-color="#5D2E8C"/></linearGradient><linearGradient id="paint7_linear" x1="3.545" y1="10.605" x2="3.545" y2="11.484" gradientUnits="userSpaceOnUse"><stop stop-color="#552EC2"/><stop offset="1" stop-color="#5D2E8C"/></linearGradient><linearGradient id="paint8_linear" x1="10.605" y1="5.332" x2="10.605" y2="6.211" gradientUnits="userSpaceOnUse"><stop stop-color="#552EC2"/><stop offset="1" stop-color="#5D2E8C"/></linearGradient></defs></svg>