<svg width="39" height="30" fill="none" xmlns="http://www.w3.org/2000/svg"><path d="M20.633 8.236a6.514 6.514 0 00-1.133-.112 6.507 6.507 0 00-6.5 6.5c0 .386.047.763.114 1.132a.814.814 0 00.94.659.814.814 0 00.659-.941 4.716 4.716 0 01-.088-.85A4.881 4.881 0 0119.5 9.749c.293 0 .574.037.85.086.432.088.863-.218.94-.658a.813.813 0 00-.657-.941z" fill="url(#paint0_linear)"/><path d="M24.832 4.185c-1.85-.623-3.643-.936-5.332-.936C9.488 3.249.567 13.655.192 14.099a.812.812 0 00-.046.99c.112.16 2.799 3.974 7.454 7.067a.805.805 0 001.125-.23.81.81 0 00-.228-1.124c-3.419-2.273-5.759-5.018-6.635-6.134 1.87-2.032 9.544-9.794 17.638-9.794 1.513 0 3.133.286 4.813.85a.801.801 0 001.029-.51.811.811 0 00-.51-1.03z" fill="url(#paint1_linear)"/><path d="M24.096 10.028a.813.813 0 00-1.15 1.15 4.843 4.843 0 011.43 3.446 4.881 4.881 0 01-4.876 4.875 4.836 4.836 0 01-3.446-1.429.813.813 0 00-1.15 1.15 6.447 6.447 0 004.596 1.904c3.585 0 6.5-2.915 6.5-6.5 0-1.737-.676-3.37-1.904-4.596z" fill="url(#paint2_linear)"/><path d="M38.807 14.099c-.184-.218-4.58-5.348-10.642-8.489a.814.814 0 00-.746 1.445c4.67 2.418 8.401 6.19 9.677 7.569-1.937 2.098-9.56 9.75-17.596 9.75-2.727 0-5.474-.658-8.17-1.958a.81.81 0 10-.706 1.462c2.917 1.41 5.904 2.12 8.876 2.12 10.012 0 18.933-10.406 19.309-10.85a.812.812 0 00-.002-1.049z" fill="url(#paint3_linear)"/><path d="M33.886.238a.813.813 0 00-1.149 0L5.112 27.863a.813.813 0 001.15 1.149L33.885 1.387a.813.813 0 000-1.15z" fill="url(#paint4_linear)"/><defs><linearGradient id="paint0_linear" x1="17.152" y1="8.124" x2="17.152" y2="16.427" gradientUnits="userSpaceOnUse"><stop stop-color="#552EC2"/><stop offset="1" stop-color="#5D2E8C"/></linearGradient><linearGradient id="paint1_linear" x1="12.692" y1="3.249" x2="12.692" y2="22.292" gradientUnits="userSpaceOnUse"><stop stop-color="#552EC2"/><stop offset="1" stop-color="#5D2E8C"/></linearGradient><linearGradient id="paint2_linear" x1="20.334" y1="9.791" x2="20.334" y2="21.124" gradientUnits="userSpaceOnUse"><stop stop-color="#552EC2"/><stop offset="1" stop-color="#5D2E8C"/></linearGradient><linearGradient id="paint3_linear" x1="24.582" y1="5.519" x2="24.582" y2="25.999" gradientUnits="userSpaceOnUse"><stop stop-color="#552EC2"/><stop offset="1" stop-color="#5D2E8C"/></linearGradient><linearGradient id="paint4_linear" x1="19.499" y1="0" x2="19.499" y2="29.249" gradientUnits="userSpaceOnUse"><stop stop-color="#552EC2"/><stop offset="1" stop-color="#5D2E8C"/></linearGradient></defs></svg>