<svg width="596" height="471" fill="none" xmlns="http://www.w3.org/2000/svg"><path fill-rule="evenodd" clip-rule="evenodd" d="M480.774 8.911L586.091 109.56c12.89 12.344 13.204 33.233.943 46.21L299.377 460.249c-12.261 12.977-33.01 13.294-45.9.95L148.16 360.55c-12.889-12.344-13.204-33.233-.943-46.21L434.874 9.86c12.576-12.66 33.01-13.293 45.9-.949z" fill="#5C2E88"/><path fill-rule="evenodd" clip-rule="evenodd" d="M92.2 91.836L9.202 180.458c-12.261 12.976-11.947 33.549.943 46.21L233.67 441.259c12.89 12.344 33.639 12.027 45.899-.949l82.997-88.622c12.26-12.977 11.946-33.55-.943-46.21L138.099 90.886c-12.89-12.66-33.639-12.027-45.9.95z" fill="#5C2E88"/><path fill-rule="evenodd" clip-rule="evenodd" d="M145.957 332.064c-3.772-3.798-3.772-10.128 0-13.926l16.977-17.091c1.886-1.899 4.401-2.849 6.916-2.849 2.515 0 5.03.95 6.917 2.849 3.772 3.798 3.772 10.128 0 13.926l-16.977 17.091c-3.773 3.798-10.06 3.798-13.833 0zm20.751 20.573c-3.773-3.798-3.773-10.128 0-13.926l16.976-17.091c1.887-1.899 4.402-2.849 6.917-2.849 2.515 0 5.03.95 6.916 2.849 3.773 3.798 3.773 10.128 0 13.926l-16.976 17.091c-3.773 4.115-10.061 4.115-13.833 0zm34.581 20.89c-1.887 1.899-4.402 2.849-6.917 2.849-2.515 0-5.03-.95-6.916-2.849-3.773-3.798-3.773-10.128 0-13.926l16.976-17.091c1.887-1.899 4.402-2.849 6.917-2.849 2.515 0 5.03.95 6.916 2.849 1.886 1.899 2.829 4.431 2.829 6.963s-.943 5.064-2.829 6.963l-16.976 17.091zm29.237 12.344l-8.488 8.545c-3.773 3.798-10.061 3.798-13.833 0-3.773-3.798-3.773-10.128 0-13.926l16.976-17.091c1.887-1.899 4.402-2.849 6.917-2.849 2.515 0 5.03.95 6.916 2.849 3.773 3.798 3.773 10.128 0 13.926l-8.488 8.546z" fill="#fff"/><path fill-rule="evenodd" clip-rule="evenodd" d="M347.789 358.018c-3.773 3.798-10.06 3.798-13.833 0l-5.973-6.014-21.378-21.523c-1.886-1.899-5.03-1.899-6.916 0-1.886 1.9-1.886 5.065 0 6.964l21.378 21.522c3.772 3.798 3.772 10.128 0 13.926-3.773 3.798-10.06 3.798-13.833 0l-21.063-21.206c-1.887-1.899-5.03-1.899-6.917 0-1.886 1.899-1.886 5.065 0 6.964l17.291 17.407c3.773 3.799 3.773 10.129 0 13.927-3.772 3.798-10.06 3.798-13.833 0l-4.086-4.115-13.204-13.293c-1.887-1.899-5.031-1.899-6.917 0-1.886 1.899-1.886 5.064 0 6.963l13.204 13.293c3.773 3.798 3.773 10.128 0 13.927-3.772 3.798-10.06 3.798-13.833 0L240.9 389.668l5.03-5.064c7.545-7.596 7.545-19.94 0-27.536-4.087-4.115-9.746-6.014-15.09-5.697v-1.266c0-5.381-1.887-10.128-5.659-13.926-4.087-4.115-9.746-6.014-15.09-5.698.314-5.38-1.572-11.077-5.659-15.192-4.087-4.114-9.746-6.013-15.09-5.697.314-5.381-1.572-11.078-5.659-15.192-7.545-7.596-19.806-7.596-27.351 0l-5.03 5.064-9.746-9.812 51.244-52.223 10.374 10.444c.943.95 2.201 1.266 3.459 1.266h14.461l-18.548 18.674c-1.887 1.899-1.887 5.064 0 6.963a35.124 35.124 0 0049.986 0l13.204-13.293 53.759 54.123c.314.316.314.633.943.949l27.351 27.536c1.886 1.899 2.829 4.431 2.829 6.963 0 2.849-.943 5.065-2.829 6.964z" fill="#fff"/><path fill-rule="evenodd" clip-rule="evenodd" d="M344.647 327.001l-75.451-75.962c-.943-.949-2.201-1.266-3.458-1.266-1.258 0-2.515.633-3.458 1.266l-16.663 16.775c-4.715 4.748-11.317 7.596-18.234 7.596-5.344 0-10.374-1.582-14.461-4.431l42.441-42.728h38.354l19.178 19.307c1.886 1.899 5.03 1.899 6.916 0l10.689-10.129 51.558 51.907-37.411 37.665z" fill="#fff"/><path fill-rule="evenodd" clip-rule="evenodd" d="M482.344 78.859l38.04 37.664c8.802 8.546 8.802 22.789.314 31.334l-130.782 132.3-69.478-68.998L450.906 79.175c8.803-8.545 22.635-8.862 31.438-.316z" fill="#FAFBFC"/><path fill-rule="evenodd" clip-rule="evenodd" d="M102.574 145.325l-37.726 37.981c-8.488 8.546-8.488 22.789 0 31.334l67.906 68.682 68.849-69.315-67.906-68.682c-8.488-8.545-22.635-8.545-31.123 0z" fill="#fff"/></svg>