<svg width="10" height="13" viewBox="0 0 10 13" fill="none" xmlns="http://www.w3.org/2000/svg">
<path d="M9.65171 3.11354L6.64818 0.110007C6.57807 0.0398729 6.48238 0 6.38266 0H1.12635C0.505282 0 0 0.505282 0 1.12635V11.689C0 12.3101 0.505282 12.8154 1.12635 12.8154H8.63537C9.25644 12.8154 9.76172 12.3101 9.76172 11.689V3.37906C9.76172 3.27668 9.71874 3.18054 9.65171 3.11354ZM6.75811 1.28186L8.47985 3.00361H7.13356C6.92654 3.00361 6.75811 2.83518 6.75811 2.62815V1.28186ZM8.63537 12.0645H1.12635C0.919329 12.0645 0.750901 11.8961 0.750901 11.689V1.12635C0.750901 0.919329 0.919329 0.750901 1.12635 0.750901H6.00721V2.62815C6.00721 3.24923 6.51249 3.75451 7.13356 3.75451H9.01082V11.689C9.01082 11.8961 8.84239 12.0645 8.63537 12.0645Z" fill="url(#paint0_linear)"/>
<path d="M7.13379 5.30566H2.62838C2.42103 5.30566 2.25293 5.47377 2.25293 5.68111C2.25293 5.88846 2.42103 6.05657 2.62838 6.05657H7.13379C7.34114 6.05657 7.50924 5.88846 7.50924 5.68111C7.50924 5.47377 7.34114 5.30566 7.13379 5.30566Z" fill="url(#paint1_linear)"/>
<path d="M7.13379 6.80762H2.62838C2.42103 6.80762 2.25293 6.97572 2.25293 7.18307C2.25293 7.39042 2.42103 7.55852 2.62838 7.55852H7.13379C7.34114 7.55852 7.50924 7.39042 7.50924 7.18307C7.50924 6.97572 7.34114 6.80762 7.13379 6.80762Z" fill="url(#paint2_linear)"/>
<path d="M7.13379 8.30957H2.62838C2.42103 8.30957 2.25293 8.47767 2.25293 8.68502C2.25293 8.89237 2.42103 9.06047 2.62838 9.06047H7.13379C7.34114 9.06047 7.50924 8.89237 7.50924 8.68502C7.50924 8.47767 7.34114 8.30957 7.13379 8.30957Z" fill="url(#paint3_linear)"/>
<path d="M5.63199 9.8125H2.62838C2.42103 9.8125 2.25293 9.9806 2.25293 10.188C2.25293 10.3953 2.42103 10.5634 2.62838 10.5634H5.63199C5.83934 10.5634 6.00744 10.3953 6.00744 10.188C6.00744 9.9806 5.83934 9.8125 5.63199 9.8125Z" fill="url(#paint4_linear)"/>
<defs>
<linearGradient id="paint0_linear" x1="4.88086" y1="0" x2="4.88086" y2="12.8154" gradientUnits="userSpaceOnUse">
<stop stop-color="#552EC2"/>
<stop offset="1" stop-color="#5D2E8C"/>
</linearGradient>
<linearGradient id="paint1_linear" x1="4.88108" y1="5.30566" x2="4.88108" y2="6.05657" gradientUnits="userSpaceOnUse">
<stop stop-color="#552EC2"/>
<stop offset="1" stop-color="#5D2E8C"/>
</linearGradient>
<linearGradient id="paint2_linear" x1="4.88108" y1="6.80762" x2="4.88108" y2="7.55852" gradientUnits="userSpaceOnUse">
<stop stop-color="#552EC2"/>
<stop offset="1" stop-color="#5D2E8C"/>
</linearGradient>
<linearGradient id="paint3_linear" x1="4.88108" y1="8.30957" x2="4.88108" y2="9.06047" gradientUnits="userSpaceOnUse">
<stop stop-color="#552EC2"/>
<stop offset="1" stop-color="#5D2E8C"/>
</linearGradient>
<linearGradient id="paint4_linear" x1="4.13018" y1="9.8125" x2="4.13018" y2="10.5634" gradientUnits="userSpaceOnUse">
<stop stop-color="#552EC2"/>
<stop offset="1" stop-color="#5D2E8C"/>
</linearGradient>
</defs>
</svg>
