<svg width="11" height="16" viewBox="0 0 11 16" fill="none" xmlns="http://www.w3.org/2000/svg">
<path d="M9.47106 0H1.00756C0.452 0 0 0.452 0 1.00756V15.3955C0 15.6147 0.118687 15.8166 0.310125 15.9234C0.401812 15.9746 0.503187 16 0.604531 16C0.714969 16 0.825 15.97 0.922313 15.9099L5.2405 13.2439L9.55809 15.8906C9.74469 16.0052 9.97866 16.0099 10.1695 15.9027C10.3603 15.7959 10.4786 15.5942 10.4786 15.3753V1.00756C10.4786 0.452 10.0266 0 9.47106 0ZM9.26953 14.2954L5.55547 12.0185C5.36081 11.8993 5.11578 11.8998 4.92172 12.0195L1.20906 14.3117V1.20906H9.26953V14.2954Z" fill="url(#paint0_linear)"/>
<defs>
<linearGradient id="paint0_linear" x1="5.2393" y1="0" x2="5.2393" y2="16" gradientUnits="userSpaceOnUse">
<stop stop-color="#552EC2"/>
<stop offset="1" stop-color="#5D2E8C"/>
</linearGradient>
</defs>
</svg>
