<svg width="15" height="14" viewBox="0 0 15 14" fill="none" xmlns="http://www.w3.org/2000/svg">
<path d="M7.49975 9.63544C7.0804 9.63544 6.72888 9.98695 6.72888 10.4063C6.72888 10.8257 7.0804 11.1772 7.49975 11.1772C7.90369 11.1772 8.27062 10.8257 8.25212 10.4248C8.27062 9.98387 7.92219 9.63544 7.49975 9.63544Z" fill="url(#paint0_linear)"/>
<path d="M14.635 12.3678C15.1191 11.5322 15.1222 10.5363 14.6412 9.70371L9.81242 1.34131C9.33448 0.499524 8.47111 0 7.50289 0C6.53468 0 5.67131 0.502607 5.19337 1.33823L0.358469 9.70988C-0.122554 10.5517 -0.11947 11.5538 0.36772 12.3894C0.848743 13.2158 1.70903 13.7122 2.67108 13.7122H12.3162C13.2813 13.7122 14.1478 13.2096 14.635 12.3678ZM13.5866 11.7635C13.3183 12.226 12.8435 12.5004 12.3131 12.5004H2.668C2.1438 12.5004 1.67203 12.2322 1.40994 11.7789C1.14476 11.3195 1.14167 10.7706 1.40685 10.3081L6.24175 1.93951C6.50385 1.48007 6.97253 1.20872 7.50289 1.20872C8.03017 1.20872 8.50194 1.48315 8.76404 1.94259L13.5959 10.3112C13.8549 10.7613 13.8518 11.304 13.5866 11.7635Z" fill="url(#paint1_linear)"/>
<path d="M7.30861 4.22403C6.94168 4.32887 6.7135 4.66189 6.7135 5.06582C6.732 5.30942 6.74742 5.5561 6.76592 5.79969C6.81834 6.72782 6.87076 7.63745 6.92318 8.56557C6.94168 8.88009 7.18527 9.10827 7.49979 9.10827C7.8143 9.10827 8.06098 8.86467 8.0764 8.54707C8.0764 8.3559 8.0764 8.18014 8.0949 7.98588C8.12882 7.39077 8.16582 6.79566 8.19974 6.20054C8.21824 5.81511 8.25216 5.42967 8.27066 5.04424C8.27066 4.90548 8.25216 4.78214 8.19974 4.6588C8.04248 4.31345 7.67555 4.1377 7.30861 4.22403Z" fill="url(#paint2_linear)"/>
<defs>
<linearGradient id="paint0_linear" x1="7.49085" y1="9.63544" x2="7.49085" y2="11.1772" gradientUnits="userSpaceOnUse">
<stop stop-color="#552EC2"/>
<stop offset="1" stop-color="#5D2E8C"/>
</linearGradient>
<linearGradient id="paint1_linear" x1="7.5" y1="0" x2="7.5" y2="13.7122" gradientUnits="userSpaceOnUse">
<stop stop-color="#552EC2"/>
<stop offset="1" stop-color="#5D2E8C"/>
</linearGradient>
<linearGradient id="paint2_linear" x1="7.49208" y1="4.20227" x2="7.49208" y2="9.10827" gradientUnits="userSpaceOnUse">
<stop stop-color="#552EC2"/>
<stop offset="1" stop-color="#5D2E8C"/>
</linearGradient>
</defs>
</svg>
