<svg width="27" height="27" viewBox="0 0 27 27" fill="none" xmlns="http://www.w3.org/2000/svg">
<path d="M21.375 13.4991C20.7529 13.4991 20.25 14.0032 20.25 14.624V23.6241C20.25 24.244 19.746 24.7491 19.1251 24.7491H3.37501C2.75393 24.7491 2.25007 24.244 2.25007 23.6241V7.87403C2.25007 7.25419 2.75393 6.7491 3.37501 6.7491H12.3751C12.9972 6.7491 13.5 6.24503 13.5 5.62416C13.5 5.00309 12.9972 4.49902 12.3751 4.49902H3.37501C1.51426 4.49902 0 6.01329 0 7.87403V23.6241C0 25.4849 1.51426 26.9991 3.37501 26.9991H19.1251C20.9858 26.9991 22.5001 25.4849 22.5001 23.6241V14.624C22.5001 14.0019 21.9971 13.4991 21.375 13.4991Z" fill="url(#paint0_linear)"/>
<path d="M10.5483 12.4742C10.4696 12.5529 10.4166 12.653 10.3942 12.761L9.59884 16.7391C9.56176 16.9235 9.62026 17.1136 9.75292 17.2475C9.85983 17.3544 10.0038 17.4117 10.1513 17.4117C10.1872 17.4117 10.2244 17.4084 10.2615 17.4006L14.2384 16.6052C14.3487 16.5826 14.4488 16.5299 14.5264 16.451L23.4274 7.54996L19.4505 3.57324L10.5483 12.4742Z" fill="url(#paint1_linear)"/>
<path d="M26.1764 0.822689C25.0797 -0.27423 23.2954 -0.27423 22.1995 0.822689L20.6426 2.37959L24.6195 6.35651L26.1764 4.7994C26.7075 4.26959 27 3.56303 27 2.81156C27 2.0601 26.7075 1.35354 26.1764 0.822689Z" fill="url(#paint2_linear)"/>
<defs>
<linearGradient id="paint0_linear" x1="11.2501" y1="4.49902" x2="11.2501" y2="26.9991" gradientUnits="userSpaceOnUse">
<stop stop-color="#552EC2"/>
<stop offset="1" stop-color="#5D2E8C"/>
</linearGradient>
<linearGradient id="paint1_linear" x1="16.5077" y1="3.57324" x2="16.5077" y2="17.4117" gradientUnits="userSpaceOnUse">
<stop stop-color="#552EC2"/>
<stop offset="1" stop-color="#5D2E8C"/>
</linearGradient>
<linearGradient id="paint2_linear" x1="23.8213" y1="0" x2="23.8213" y2="6.35651" gradientUnits="userSpaceOnUse">
<stop stop-color="#552EC2"/>
<stop offset="1" stop-color="#5D2E8C"/>
</linearGradient>
</defs>
</svg>
