<svg width="30" height="30" viewBox="0 0 30 30" fill="none" xmlns="http://www.w3.org/2000/svg">
<path d="M22.7719 19.1031C21.4785 17.8097 19.939 16.8523 18.2594 16.2727C20.0583 15.0336 21.2402 12.96 21.2402 10.6152C21.2402 6.82975 18.1605 3.75 14.375 3.75C10.5895 3.75 7.50977 6.82975 7.50977 10.6152C7.50977 12.96 8.69165 15.0336 10.4907 16.2727C8.81101 16.8523 7.27152 17.8097 5.97812 19.1031C3.73523 21.346 2.5 24.3281 2.5 27.5H4.35547C4.35547 21.9752 8.8502 17.4805 14.375 17.4805C19.8998 17.4805 24.3945 21.9752 24.3945 27.5H26.25C26.25 24.3281 25.0148 21.346 22.7719 19.1031ZM14.375 15.625C11.6126 15.625 9.36523 13.3777 9.36523 10.6152C9.36523 7.85281 11.6126 5.60547 14.375 5.60547C17.1374 5.60547 19.3848 7.85281 19.3848 10.6152C19.3848 13.3777 17.1374 15.625 14.375 15.625Z" fill="url(#paint0_linear)"/>
<defs>
<linearGradient id="paint0_linear" x1="14.375" y1="3.75" x2="14.375" y2="27.5" gradientUnits="userSpaceOnUse">
<stop stop-color="#552EC2"/>
<stop offset="1" stop-color="#5D2E8C"/>
</linearGradient>
</defs>
</svg>
