<svg width="15" height="14" viewBox="0 0 15 14" fill="none" xmlns="http://www.w3.org/2000/svg">
<path d="M7.00001 12.8334H1.74999C1.42799 12.8334 1.16667 12.572 1.16667 12.25V1.75002C1.16667 1.42801 1.42801 1.1667 1.74999 1.1667H7.00001C7.32259 1.1667 7.58333 0.905955 7.58333 0.583376C7.58333 0.260796 7.32259 0 7.00001 0H1.74999C0.785159 0 0 0.785187 0 1.75002V12.25C0 13.2148 0.785159 14 1.74999 14H7.00001C7.32259 14 7.58333 13.7393 7.58333 13.4167C7.58333 13.0941 7.32259 12.8334 7.00001 12.8334Z" fill="url(#paint0_linear)"/>
<path d="M13.8729 6.58494L10.3262 3.08493C10.0976 2.85859 9.72775 2.86153 9.50141 3.09077C9.27507 3.32002 9.2774 3.68927 9.50725 3.9156L12.0418 6.41693H5.25007C4.92749 6.41693 4.66675 6.67767 4.66675 7.00025C4.66675 7.32283 4.92749 7.58359 5.25007 7.58359H12.0418L9.50725 10.0849C9.27743 10.3113 9.27567 10.6805 9.50141 10.9097C9.61573 11.0252 9.76624 11.0836 9.91675 11.0836C10.0649 11.0836 10.2131 11.0276 10.3262 10.9156L13.8729 7.41556C13.9837 7.3059 14.0467 7.15654 14.0467 7.00022C14.0467 6.84395 13.9843 6.6952 13.8729 6.58494Z" fill="url(#paint1_linear)"/>
<defs>
<linearGradient id="paint0_linear" x1="3.79167" y1="0" x2="3.79167" y2="14" gradientUnits="userSpaceOnUse">
<stop stop-color="#552EC2"/>
<stop offset="1" stop-color="#5D2E8C"/>
</linearGradient>
<linearGradient id="paint1_linear" x1="9.35674" y1="2.91699" x2="9.35674" y2="11.0836" gradientUnits="userSpaceOnUse">
<stop stop-color="#552EC2"/>
<stop offset="1" stop-color="#5D2E8C"/>
</linearGradient>
</defs>
</svg>
