<svg width="39" height="30" viewBox="0 0 39 30" fill="none" xmlns="http://www.w3.org/2000/svg">
<path d="M20.6327 8.2359C20.2638 8.17093 19.8868 8.12378 19.5001 8.12378C15.9154 8.12378 13.0001 11.039 13.0001 14.6237C13.0001 15.0105 13.0473 15.3875 13.1138 15.7563C13.1837 16.1496 13.5266 16.4275 13.9117 16.4275C13.9589 16.4275 14.006 16.4242 14.0547 16.4145C14.4951 16.3365 14.7908 15.9139 14.7128 15.4736C14.6625 15.1973 14.6251 14.9162 14.6251 14.6237C14.6251 11.936 16.8124 9.74875 19.5001 9.74875C19.7926 9.74875 20.0737 9.78615 20.3499 9.8349C20.7822 9.92265 21.2128 9.61713 21.2908 9.17678C21.3688 8.73643 21.0731 8.3139 20.6327 8.2359Z" fill="url(#paint0_linear)"/>
<path d="M24.8317 4.18478C22.9825 3.56238 21.1885 3.24878 19.5001 3.24878C9.48844 3.24878 0.567209 13.6553 0.191835 14.0989C-0.0454402 14.3784 -0.0649401 14.7847 0.14636 15.0885C0.258485 15.2494 2.9446 19.0632 7.60021 22.1557C7.73831 22.2483 7.89271 22.2922 8.04871 22.2922C8.31036 22.2922 8.56874 22.1654 8.72474 21.9265C8.97336 21.5544 8.87099 21.049 8.49721 20.802C5.07825 18.5287 2.73825 15.784 1.86236 14.6677C3.73275 12.6364 11.406 4.87383 19.5001 4.87383C21.0129 4.87383 22.6331 5.15985 24.3133 5.72367C24.739 5.8764 25.2005 5.6408 25.3419 5.2134C25.4849 4.78768 25.2574 4.32783 24.8317 4.18478Z" fill="url(#paint1_linear)"/>
<path d="M24.0958 10.0283C23.7789 9.71143 23.2638 9.71143 22.9469 10.0283C22.63 10.3452 22.63 10.8619 22.9469 11.1772C23.8667 12.097 24.3753 13.3206 24.3753 14.6238C24.3753 17.3115 22.188 19.4988 19.5003 19.4988C18.1971 19.4988 16.9734 18.9918 16.0537 18.0704C15.7368 17.7536 15.2216 17.7536 14.9048 18.0704C14.5879 18.3857 14.5879 18.9025 14.9048 19.2193C16.13 20.4478 17.7631 21.1238 19.5003 21.1238C23.085 21.1238 26.0002 18.2086 26.0002 14.6239C26.0002 12.8866 25.3243 11.2535 24.0958 10.0283Z" fill="url(#paint2_linear)"/>
<path d="M38.8068 14.099C38.6231 13.8812 34.2275 8.75109 28.1647 5.61C27.7714 5.40365 27.2758 5.55965 27.0694 5.9594C26.863 6.35755 27.019 6.84825 27.4188 7.05468C32.089 9.47267 35.82 13.2459 37.0956 14.6239C35.1587 16.7218 27.5358 24.3739 19.5002 24.3739C16.7735 24.3739 14.0256 23.7158 11.3297 22.4158C10.93 22.2192 10.4409 22.3898 10.2459 22.7944C10.0493 23.1974 10.2199 23.6833 10.6245 23.8783C13.5414 25.2871 16.5281 25.9989 19.5003 25.9989C29.5119 25.9989 38.4331 15.5924 38.8085 15.1488C39.0651 14.8464 39.0635 14.4028 38.8068 14.099Z" fill="url(#paint3_linear)"/>
<path d="M33.8861 0.237656C33.5692 -0.0792185 33.0541 -0.0792185 32.7372 0.237656L5.11235 27.8626C4.79548 28.1795 4.79548 28.6946 5.11235 29.0115C5.27163 29.1691 5.47957 29.2488 5.6876 29.2488C5.89562 29.2488 6.10357 29.1692 6.26125 29.0115L33.8861 1.38655C34.203 1.06968 34.203 0.55453 33.8861 0.237656Z" fill="url(#paint4_linear)"/>
<defs>
<linearGradient id="paint0_linear" x1="17.1517" y1="8.12378" x2="17.1517" y2="16.4275" gradientUnits="userSpaceOnUse">
<stop stop-color="#552EC2"/>
<stop offset="1" stop-color="#5D2E8C"/>
</linearGradient>
<linearGradient id="paint1_linear" x1="12.6923" y1="3.24878" x2="12.6923" y2="22.2922" gradientUnits="userSpaceOnUse">
<stop stop-color="#552EC2"/>
<stop offset="1" stop-color="#5D2E8C"/>
</linearGradient>
<linearGradient id="paint2_linear" x1="20.3337" y1="9.79065" x2="20.3337" y2="21.1238" gradientUnits="userSpaceOnUse">
<stop stop-color="#552EC2"/>
<stop offset="1" stop-color="#5D2E8C"/>
</linearGradient>
<linearGradient id="paint3_linear" x1="24.5822" y1="5.51892" x2="24.5822" y2="25.9989" gradientUnits="userSpaceOnUse">
<stop stop-color="#552EC2"/>
<stop offset="1" stop-color="#5D2E8C"/>
</linearGradient>
<linearGradient id="paint4_linear" x1="19.4992" y1="0" x2="19.4992" y2="29.2488" gradientUnits="userSpaceOnUse">
<stop stop-color="#552EC2"/>
<stop offset="1" stop-color="#5D2E8C"/>
</linearGradient>
</defs>
</svg>
