<svg width="596" height="471" viewBox="0 0 596 471" fill="none" xmlns="http://www.w3.org/2000/svg">
<path fill-rule="evenodd" clip-rule="evenodd" d="M480.774 8.91113L586.091 109.56C598.981 121.904 599.295 142.793 587.034 155.77L299.377 460.249C287.116 473.226 266.367 473.543 253.477 461.199L148.16 360.55C135.271 348.206 134.956 327.317 147.217 314.34L434.874 9.86065C447.45 -2.79961 467.884 -3.43262 480.774 8.91113Z" fill="#5C2E88"/>
<path fill-rule="evenodd" clip-rule="evenodd" d="M92.1991 91.8357L9.20278 180.458C-3.05803 193.434 -2.74365 214.007 10.1459 226.668L233.67 441.259C246.56 453.603 267.309 453.286 279.569 440.31L362.566 351.688C374.826 338.711 374.512 318.138 361.623 305.478L138.099 90.8862C125.209 78.2259 104.46 78.8589 92.1991 91.8357Z" fill="#5C2E88"/>
<path fill-rule="evenodd" clip-rule="evenodd" d="M145.957 332.064C142.185 328.266 142.185 321.936 145.957 318.138L162.934 301.047C164.82 299.148 167.335 298.198 169.85 298.198C172.365 298.198 174.88 299.148 176.767 301.047C180.539 304.845 180.539 311.175 176.767 314.973L159.79 332.064C156.017 335.862 149.73 335.862 145.957 332.064Z" fill="white"/>
<path fill-rule="evenodd" clip-rule="evenodd" d="M166.708 352.637C162.935 348.839 162.935 342.509 166.708 338.711L183.684 321.62C185.571 319.721 188.086 318.771 190.601 318.771C193.116 318.771 195.631 319.721 197.517 321.62C201.29 325.418 201.29 331.748 197.517 335.546L180.541 352.637C176.768 356.752 170.48 356.752 166.708 352.637Z" fill="white"/>
<path fill-rule="evenodd" clip-rule="evenodd" d="M201.289 373.527C199.402 375.426 196.887 376.376 194.372 376.376C191.857 376.376 189.342 375.426 187.456 373.527C183.683 369.729 183.683 363.399 187.456 359.601L204.432 342.51C206.319 340.611 208.834 339.661 211.349 339.661C213.864 339.661 216.379 340.611 218.265 342.51C220.151 344.409 221.094 346.941 221.094 349.473C221.094 352.005 220.151 354.537 218.265 356.436L201.289 373.527Z" fill="white"/>
<path fill-rule="evenodd" clip-rule="evenodd" d="M230.526 385.871L222.038 394.416C218.265 398.214 211.977 398.214 208.205 394.416C204.432 390.618 204.432 384.288 208.205 380.49L225.181 363.399C227.068 361.5 229.583 360.55 232.098 360.55C234.613 360.55 237.128 361.5 239.014 363.399C242.787 367.197 242.787 373.527 239.014 377.325L230.526 385.871Z" fill="white"/>
<path fill-rule="evenodd" clip-rule="evenodd" d="M347.789 358.018C344.016 361.816 337.729 361.816 333.956 358.018L327.983 352.004L306.605 330.481C304.719 328.582 301.575 328.582 299.689 330.481C297.803 332.381 297.803 335.546 299.689 337.445L321.067 358.967C324.839 362.765 324.839 369.095 321.067 372.893C317.294 376.691 311.007 376.691 307.234 372.893L286.171 351.687C284.284 349.788 281.141 349.788 279.254 351.687C277.368 353.586 277.368 356.752 279.254 358.651L296.545 376.058C300.318 379.857 300.318 386.187 296.545 389.985C292.773 393.783 286.485 393.783 282.712 389.985L278.626 385.87L265.422 372.577C263.535 370.678 260.391 370.678 258.505 372.577C256.619 374.476 256.619 377.641 258.505 379.54L271.709 392.833C275.482 396.631 275.482 402.961 271.709 406.76C267.937 410.558 261.649 410.558 257.876 406.76L240.9 389.668L245.93 384.604C253.475 377.008 253.475 364.664 245.93 357.068C241.843 352.953 236.184 351.054 230.84 351.371C230.84 351.054 230.84 350.421 230.84 350.105C230.84 344.724 228.953 339.977 225.181 336.179C221.094 332.064 215.435 330.165 210.091 330.481C210.405 325.101 208.519 319.404 204.432 315.289C200.345 311.175 194.686 309.276 189.342 309.592C189.656 304.211 187.77 298.514 183.683 294.4C176.138 286.804 163.877 286.804 156.332 294.4L151.302 299.464L141.556 289.652L192.8 237.429L203.174 247.873C204.117 248.823 205.375 249.139 206.633 249.139H221.094L202.546 267.813C200.659 269.712 200.659 272.877 202.546 274.776C216.378 288.703 238.699 288.703 252.532 274.776L265.736 261.483L319.495 315.606C319.809 315.922 319.809 316.239 320.438 316.555L347.789 344.091C349.675 345.99 350.618 348.522 350.618 351.054C350.618 353.903 349.675 356.119 347.789 358.018Z" fill="white"/>
<path fill-rule="evenodd" clip-rule="evenodd" d="M344.647 327.001L269.196 251.039C268.253 250.09 266.995 249.773 265.738 249.773C264.48 249.773 263.223 250.406 262.28 251.039L245.617 267.814C240.902 272.562 234.3 275.41 227.383 275.41C222.039 275.41 217.009 273.828 212.922 270.979L255.363 228.251H293.717L312.895 247.558C314.781 249.457 317.925 249.457 319.811 247.558L330.5 237.429L382.058 289.336L344.647 327.001Z" fill="white"/>
<path fill-rule="evenodd" clip-rule="evenodd" d="M482.344 78.8588L520.384 116.523C529.186 125.069 529.186 139.312 520.698 147.857L389.916 280.157L320.438 211.159L450.906 79.1753C459.709 70.6296 473.541 70.3131 482.344 78.8588Z" fill="#FAFBFC"/>
<path fill-rule="evenodd" clip-rule="evenodd" d="M102.574 145.325L64.8481 183.306C56.3599 191.852 56.3599 206.095 64.8481 214.64L132.754 283.322L201.603 214.007L133.697 145.325C125.209 136.78 111.062 136.78 102.574 145.325Z" fill="white"/>
</svg>
