<svg width="79" height="62" viewBox="0 0 79 62" fill="none" xmlns="http://www.w3.org/2000/svg">
<path fill-rule="evenodd" clip-rule="evenodd" d="M63.7205 1.17371L77.686 14.4305C79.3952 16.0563 79.4368 18.8077 77.811 20.5169L39.6666 60.6206C38.0408 62.3298 35.2894 62.3715 33.5802 60.7457L19.6147 47.4889C17.9055 45.8631 17.8638 43.1117 19.4897 41.4025L57.6341 1.29877C59.3016 -0.368744 62.0113 -0.452119 63.7205 1.17371Z" fill="white"/>
<path fill-rule="evenodd" clip-rule="evenodd" d="M12.1945 12.096L1.18889 23.7686C-0.436941 25.4778 -0.395253 28.1875 1.31395 29.855L30.954 58.1194C32.6632 59.7452 35.4146 59.7036 37.0405 57.9944L48.0461 46.3217C49.6719 44.6125 49.6302 41.9028 47.921 40.2353L18.2809 11.9709C16.5717 10.3034 13.8203 10.3868 12.1945 12.096Z" fill="white"/>
<path fill-rule="evenodd" clip-rule="evenodd" d="M19.3232 43.7365C18.8229 43.2362 18.8229 42.4024 19.3232 41.9022L21.5743 39.651C21.8245 39.4009 22.158 39.2758 22.4915 39.2758C22.825 39.2758 23.1585 39.4009 23.4086 39.651C23.9089 40.1513 23.9089 40.9851 23.4086 41.4853L21.1575 43.7365C20.6572 44.2367 19.8234 44.2367 19.3232 43.7365Z" fill="url(#paint0_linear)"/>
<path fill-rule="evenodd" clip-rule="evenodd" d="M22.0744 46.4471C21.5742 45.9469 21.5742 45.1131 22.0744 44.6128L24.3256 42.3617C24.5757 42.1116 24.9092 41.9865 25.2427 41.9865C25.5762 41.9865 25.9097 42.1116 26.1598 42.3617C26.6601 42.862 26.6601 43.6957 26.1598 44.196L23.9087 46.4471C23.4084 46.9891 22.5747 46.9891 22.0744 46.4471Z" fill="url(#paint1_linear)"/>
<path fill-rule="evenodd" clip-rule="evenodd" d="M26.6603 49.1977C26.4101 49.4478 26.0766 49.5729 25.7431 49.5729C25.4096 49.5729 25.0761 49.4478 24.826 49.1977C24.3257 48.6974 24.3257 47.8637 24.826 47.3634L27.0771 45.1123C27.3273 44.8622 27.6608 44.7371 27.9943 44.7371C28.3278 44.7371 28.6613 44.8622 28.9114 45.1123C29.1615 45.3624 29.2866 45.6959 29.2866 46.0294C29.2866 46.3629 29.1615 46.6964 28.9114 46.9465L26.6603 49.1977Z" fill="url(#paint2_linear)"/>
<path fill-rule="evenodd" clip-rule="evenodd" d="M30.5372 50.8238L29.4116 51.9493C28.9114 52.4496 28.0776 52.4496 27.5773 51.9493C27.0771 51.4491 27.0771 50.6153 27.5773 50.1151L29.8285 47.8639C30.0786 47.6138 30.4121 47.4887 30.7456 47.4887C31.0791 47.4887 31.4126 47.6138 31.6628 47.8639C32.163 48.3642 32.163 49.1979 31.6628 49.6982L30.5372 50.8238Z" fill="url(#paint3_linear)"/>
<path fill-rule="evenodd" clip-rule="evenodd" d="M46.0868 47.1556C45.5865 47.6559 44.7527 47.6559 44.2525 47.1556L43.4604 46.3635L40.6256 43.5288C40.3755 43.2786 39.9586 43.2786 39.7085 43.5288C39.4584 43.7789 39.4584 44.1958 39.7085 44.4459L42.5433 47.2807C43.0435 47.7809 43.0435 48.6147 42.5433 49.1149C42.043 49.6152 41.2093 49.6152 40.709 49.1149L37.9159 46.3218C37.6658 46.0717 37.2489 46.0717 36.9988 46.3218C36.7487 46.572 36.7487 46.9889 36.9988 47.239L39.2916 49.5318C39.7919 50.0321 39.7919 50.8658 39.2916 51.3661C38.7914 51.8663 37.9576 51.8663 37.4574 51.3661L36.9154 50.8241L35.1645 49.0732C34.9144 48.8231 34.4975 48.8231 34.2474 49.0732C33.9973 49.3234 33.9973 49.7403 34.2474 49.9904L35.9983 51.7413C36.4985 52.2415 36.4985 53.0753 35.9983 53.5755C35.498 54.0758 34.6643 54.0758 34.164 53.5755L31.9129 51.3244L32.5799 50.6574C33.5804 49.6569 33.5804 48.0311 32.5799 47.0305C32.0379 46.4886 31.2876 46.2385 30.5789 46.2802C30.5789 46.2385 30.5789 46.1551 30.5789 46.1134C30.5789 45.4047 30.3287 44.7794 29.8285 44.2791C29.2865 43.7372 28.5362 43.4871 27.8275 43.5288C27.8691 42.8201 27.619 42.0697 27.0771 41.5277C26.5351 40.9858 25.7848 40.7357 25.0761 40.7774C25.1177 40.0687 24.8676 39.3183 24.3257 38.7763C23.3252 37.7758 21.6993 37.7758 20.6988 38.7763L20.0318 39.4433L18.7395 38.151L25.5346 31.2725L26.9103 32.6482C27.0354 32.7733 27.2021 32.815 27.3689 32.815H29.2865L26.827 35.2746C26.5768 35.5247 26.5768 35.9416 26.827 36.1917C28.6612 38.026 31.6211 38.026 33.4553 36.1917L35.2062 34.4408L42.3348 41.5694C42.3765 41.6111 42.3765 41.6528 42.4599 41.6945L46.0868 45.3213C46.3369 45.5715 46.4619 45.905 46.4619 46.2385C46.4619 46.6137 46.3369 46.9055 46.0868 47.1556Z" fill="url(#paint4_linear)"/>
<path fill-rule="evenodd" clip-rule="evenodd" d="M45.6697 43.0699L35.6646 33.0648C35.5396 32.9397 35.3728 32.898 35.2061 32.898C35.0393 32.898 34.8726 32.9814 34.7475 33.0648L32.5381 35.2742C31.9127 35.8995 31.0373 36.2747 30.1202 36.2747C29.4115 36.2747 28.7445 36.0663 28.2025 35.6911L33.8304 30.0632H38.9163L41.4593 32.6062C41.7094 32.8563 42.1263 32.8563 42.3764 32.6062L43.7938 31.2722L50.6306 38.109L45.6697 43.0699Z" fill="url(#paint5_linear)"/>
<path fill-rule="evenodd" clip-rule="evenodd" d="M63.9291 10.3866L68.9733 15.3475C70.1406 16.473 70.1406 18.349 69.015 19.4746L51.6729 36.9001L42.4598 27.8121L59.7603 10.4283C60.9276 9.30273 62.7618 9.26104 63.9291 10.3866Z" fill="url(#paint6_linear)"/>
<path fill-rule="evenodd" clip-rule="evenodd" d="M13.5701 19.1412L8.56757 24.1438C7.442 25.2693 7.442 27.1453 8.56757 28.2709L17.5722 37.3171L26.7018 28.1875L17.6972 19.1412C16.5716 18.0156 14.6957 18.0156 13.5701 19.1412Z" fill="url(#paint7_linear)"/>
<defs>
<linearGradient id="paint0_linear" x1="21.3659" y1="39.2758" x2="21.3659" y2="44.1116" gradientUnits="userSpaceOnUse">
<stop stop-color="#552EC2"/>
<stop offset="1" stop-color="#5D2E8C"/>
</linearGradient>
<linearGradient id="paint1_linear" x1="24.1171" y1="41.9865" x2="24.1171" y2="46.8536" gradientUnits="userSpaceOnUse">
<stop stop-color="#552EC2"/>
<stop offset="1" stop-color="#5D2E8C"/>
</linearGradient>
<linearGradient id="paint2_linear" x1="26.8687" y1="44.7371" x2="26.8687" y2="49.5729" gradientUnits="userSpaceOnUse">
<stop stop-color="#552EC2"/>
<stop offset="1" stop-color="#5D2E8C"/>
</linearGradient>
<linearGradient id="paint3_linear" x1="29.62" y1="47.4887" x2="29.62" y2="52.3245" gradientUnits="userSpaceOnUse">
<stop stop-color="#552EC2"/>
<stop offset="1" stop-color="#5D2E8C"/>
</linearGradient>
<linearGradient id="paint4_linear" x1="32.6007" y1="31.2725" x2="32.6007" y2="53.9507" gradientUnits="userSpaceOnUse">
<stop stop-color="#552EC2"/>
<stop offset="1" stop-color="#5D2E8C"/>
</linearGradient>
<linearGradient id="paint5_linear" x1="39.4166" y1="30.0632" x2="39.4166" y2="43.0699" gradientUnits="userSpaceOnUse">
<stop stop-color="#552EC2"/>
<stop offset="1" stop-color="#5D2E8C"/>
</linearGradient>
<linearGradient id="paint6_linear" x1="56.1569" y1="9.56299" x2="56.1569" y2="36.9001" gradientUnits="userSpaceOnUse">
<stop stop-color="#552EC2"/>
<stop offset="1" stop-color="#5D2E8C"/>
</linearGradient>
<linearGradient id="paint7_linear" x1="17.2126" y1="18.297" x2="17.2126" y2="37.3171" gradientUnits="userSpaceOnUse">
<stop stop-color="#552EC2"/>
<stop offset="1" stop-color="#5D2E8C"/>
</linearGradient>
</defs>
</svg>
