<svg width="12" height="14" viewBox="0 0 12 14" fill="none" xmlns="http://www.w3.org/2000/svg">
<path d="M10.1333 7.00961V5.7333C10.1333 3.87139 8.89569 2.29329 7.19999 1.77786V1.19999C7.19999 0.538317 6.66167 0 6 0C5.33832 0 4.8 0.538317 4.8 1.19999V1.77786C3.10428 2.29329 1.86669 3.87137 1.86669 5.7333V7.00961C1.86669 8.64513 1.24328 10.1959 0.111311 11.3764C0.000377831 11.4921 -0.0307954 11.6628 0.0320843 11.8102C0.094964 11.9576 0.239763 12.0533 0.400029 12.0533H4.04025C4.22606 12.965 5.03416 13.6533 6 13.6533C6.96586 13.6533 7.77391 12.965 7.95975 12.0533H11.6C11.7602 12.0533 11.905 11.9576 11.9679 11.8102C12.0308 11.6628 11.9996 11.4921 11.8887 11.3764C10.7567 10.1959 10.1333 8.6451 10.1333 7.00961ZM5.6 1.19999C5.6 0.979435 5.77944 0.799996 6 0.799996C6.22056 0.799996 6.4 0.979435 6.4 1.19999V1.6194C6.26834 1.60671 6.13493 1.59999 6 1.59999C5.86507 1.59999 5.73165 1.60671 5.6 1.6194V1.19999ZM6 12.8533C5.47853 12.8533 5.03392 12.5188 4.8688 12.0533H7.13119C6.96607 12.5188 6.52146 12.8533 6 12.8533ZM1.26216 11.2533C2.17311 10.0322 2.66668 8.55441 2.66668 7.00961V5.7333C2.66668 3.89531 4.16201 2.39999 6 2.39999C7.83799 2.39999 9.33331 3.89531 9.33331 5.7333V7.00961C9.33331 8.55441 9.82688 10.0322 10.7379 11.2533H1.26216Z" fill="url(#paint0_linear)"/>
<path d="M11.2003 5.73284C11.2003 5.95374 11.3793 6.13284 11.6002 6.13284C11.8212 6.13284 12.0002 5.95374 12.0002 5.73284C12.0002 4.13018 11.3761 2.62344 10.2429 1.4902C10.0867 1.33401 9.83343 1.33398 9.67722 1.4902C9.52101 1.64641 9.52101 1.89966 9.67722 2.05587C10.6594 3.03803 11.2003 4.34386 11.2003 5.73284Z" fill="url(#paint1_linear)"/>
<path d="M0.399998 6.13282C0.620903 6.13282 0.799996 5.95373 0.799996 5.73282C0.799996 4.34387 1.3409 3.03804 2.32303 2.05588C2.47924 1.89967 2.47924 1.64642 2.32303 1.49021C2.16684 1.33399 1.91356 1.33399 1.75735 1.49021C0.624103 2.62345 0 4.13016 0 5.73282C0 5.95373 0.179092 6.13282 0.399998 6.13282Z" fill="url(#paint2_linear)"/>
<defs>
<linearGradient id="paint0_linear" x1="5.99999" y1="0" x2="5.99999" y2="13.6533" gradientUnits="userSpaceOnUse">
<stop stop-color="#552EC2"/>
<stop offset="1" stop-color="#5D2E8C"/>
</linearGradient>
<linearGradient id="paint1_linear" x1="10.7802" y1="1.37305" x2="10.7802" y2="6.13284" gradientUnits="userSpaceOnUse">
<stop stop-color="#552EC2"/>
<stop offset="1" stop-color="#5D2E8C"/>
</linearGradient>
<linearGradient id="paint2_linear" x1="1.22009" y1="1.37305" x2="1.22009" y2="6.13282" gradientUnits="userSpaceOnUse">
<stop stop-color="#552EC2"/>
<stop offset="1" stop-color="#5D2E8C"/>
</linearGradient>
</defs>
</svg>
